<?xml version="1.0" standalone="no"?>
<!DOCTYPE svg PUBLIC "-//W3C//DTD SVG 20010904//EN"
 "http://www.w3.org/TR/2001/REC-SVG-20010904/DTD/svg10.dtd">
<svg version="1.0" xmlns="http://www.w3.org/2000/svg"
     width="700.000000pt" height="700.000000pt" viewBox="0 0 700.000000 700.000000"
     preserveAspectRatio="xMidYMid meet">
<metadata>
Created by potrace 1.11, written by Peter Selinger 2001-2013
</metadata>
    <g transform="translate(0.000000,700.000000) scale(0.100000,-0.100000)"
       fill="#000000" stroke="none">
        <path d="M4609 5340 c-5 -9 -9 -10 -9 -3 0 8 -28 11 -92 11 l-93 0 -201 -337
c-759 -1270 -778 -1301 -790 -1289 -6 7 -224 362 -484 788 -260 426 -483 789
-494 807 l-21 32 -301 0 -301 -1 -1 -1316 c0 -1287 -2 -1410 -22 -1540 -32
-200 -128 -324 -299 -384 -72 -25 -215 -31 -291 -11 -176 45 -291 194 -326
423 -3 19 -7 41 -10 49 -2 8 -7 54 -10 103 -9 141 -8 139 -64 127 -22 -5 -57
-11 -78 -14 -20 -2 -48 -7 -62 -9 -14 -3 -43 -8 -65 -11 -91 -12 -120 -18
-126 -26 -12 -19 0 -214 20 -339 16 -96 19 -109 42 -180 74 -233 227 -411 424
-494 129 -54 230 -71 405 -69 356 4 637 169 768 453 51 109 80 220 106 400 15
103 19 378 20 1278 0 567 4 991 9 989 7 -2 262 -414 311 -502 6 -11 23 -38 37
-60 14 -22 157 -256 317 -521 l292 -481 201 1 201 1 339 535 c186 294 345 546
352 560 39 70 273 431 280 431 4 -1 6 -4 5 -8 -2 -5 -5 -7 -8 -6 -3 1 -5 -22
-4 -50 2 -67 2 -69 13 -63 5 4 7 -3 4 -14 -3 -11 -9 -18 -12 -15 -4 2 -8 -2
-8 -10 0 -8 4 -12 8 -9 4 2 10 0 14 -6 3 -5 -1 -10 -9 -10 -9 0 -16 -5 -16
-11 0 -5 5 -7 10 -4 6 3 10 -3 10 -15 0 -12 -4 -19 -8 -16 -5 3 -9 -1 -9 -9 0
-8 4 -12 8 -9 4 2 10 0 14 -6 3 -5 -1 -10 -9 -10 -9 0 -16 -5 -16 -11 0 -5 5
-7 10 -4 6 3 10 -3 10 -15 0 -12 -4 -19 -8 -16 -5 3 -9 -1 -9 -9 0 -8 4 -12 8
-9 4 2 10 0 14 -6 3 -5 -1 -10 -9 -10 -9 0 -16 -5 -16 -11 0 -5 5 -7 10 -4 6
3 10 -3 10 -15 0 -12 -4 -19 -8 -16 -5 3 -9 -1 -9 -9 0 -8 4 -12 8 -9 4 2 10
0 14 -6 3 -5 -1 -10 -9 -10 -9 0 -16 -5 -16 -11 0 -5 5 -7 10 -4 6 3 10 2 10
-4 0 -5 -4 -13 -10 -16 -5 -3 -8 -16 -6 -28 3 -12 5 -26 5 -30 1 -5 7 -5 14
-1 6 4 4 -2 -6 -13 -12 -14 -15 -23 -8 -28 7 -4 8 -13 3 -23 -11 -22 -10 -41
3 -50 6 -4 11 -16 12 -27 1 -18 1 -19 -11 -3 -11 14 -12 9 -10 -35 2 -68 3
-69 13 -63 5 4 7 -3 4 -14 -3 -11 -9 -18 -12 -15 -4 2 -8 -2 -8 -10 0 -8 4
-12 8 -9 4 2 10 0 14 -6 3 -5 -1 -10 -9 -10 -9 0 -16 -5 -16 -11 0 -5 5 -7 10
-4 6 3 10 -3 10 -15 0 -12 -4 -19 -8 -16 -5 3 -9 -1 -9 -9 0 -8 4 -12 8 -9 4
2 10 0 14 -6 3 -5 -1 -10 -9 -10 -9 0 -16 -5 -16 -11 0 -5 5 -7 10 -4 6 3 10
-3 10 -15 0 -12 -4 -19 -8 -16 -5 3 -9 -1 -9 -9 0 -8 4 -12 8 -9 4 2 10 0 14
-6 3 -5 -1 -10 -9 -10 -9 0 -16 -5 -16 -11 0 -5 5 -7 10 -4 6 3 10 -3 10 -15
0 -12 -4 -19 -8 -16 -5 3 -9 -1 -9 -9 0 -8 4 -12 8 -9 4 2 10 0 14 -6 3 -5 -1
-10 -9 -10 -9 0 -16 -5 -16 -11 0 -5 5 -7 10 -4 6 3 10 2 10 -4 0 -5 -4 -13
-10 -16 -5 -3 -8 -16 -6 -28 3 -12 5 -26 5 -30 1 -5 7 -5 14 -1 6 4 4 -2 -6
-13 -12 -14 -15 -23 -8 -28 7 -4 8 -13 3 -23 -11 -22 -10 -41 3 -50 6 -4 11
-16 12 -27 1 -18 1 -19 -11 -3 -11 14 -12 9 -10 -35 2 -68 3 -69 13 -63 5 4 7
-3 4 -14 -3 -11 -9 -18 -12 -15 -4 2 -8 -2 -8 -10 0 -8 4 -12 8 -9 4 2 10 0
14 -6 3 -5 -1 -10 -9 -10 -9 0 -16 -5 -16 -11 0 -5 5 -7 10 -4 6 3 10 -3 10
-15 0 -12 -4 -19 -8 -16 -5 3 -9 -1 -9 -9 0 -8 4 -12 8 -9 4 2 10 0 14 -6 3
-5 -1 -10 -9 -10 -9 0 -16 -5 -16 -11 0 -5 5 -7 10 -4 6 3 10 -3 10 -15 0 -12
-4 -19 -8 -16 -5 3 -9 -1 -9 -9 0 -8 4 -12 8 -9 4 2 10 0 14 -6 3 -5 -1 -10
-9 -10 -9 0 -16 -5 -16 -11 0 -5 5 -7 10 -4 6 3 10 -3 10 -15 0 -12 -4 -19 -8
-16 -5 3 -9 -1 -9 -9 0 -8 4 -12 8 -9 4 2 10 0 14 -6 3 -5 -1 -10 -9 -10 -9 0
-16 -5 -16 -11 0 -5 5 -7 10 -4 6 3 10 2 10 -4 0 -5 -4 -13 -10 -16 -5 -3 -8
-16 -6 -28 3 -12 5 -26 5 -30 1 -5 7 -5 14 -1 6 4 4 -2 -6 -13 -12 -14 -15
-23 -8 -28 7 -4 8 -13 3 -23 -11 -22 -10 -41 3 -50 6 -4 11 -16 12 -27 1 -18
1 -19 -11 -3 -11 14 -12 9 -10 -35 2 -68 3 -69 13 -63 5 4 7 -3 4 -14 -3 -11
-9 -18 -12 -15 -4 2 -8 -2 -8 -10 0 -8 4 -12 8 -9 4 2 10 0 14 -6 3 -5 -1 -10
-9 -10 -9 0 -16 -5 -16 -11 0 -5 5 -7 10 -4 6 3 10 -3 10 -15 0 -12 -4 -19 -8
-16 -5 3 -9 -1 -9 -9 0 -8 4 -12 8 -9 4 2 10 0 14 -6 3 -5 -1 -10 -9 -10 -9 0
-16 -5 -16 -11 0 -5 5 -7 10 -4 6 3 10 -3 10 -15 0 -12 -4 -19 -8 -16 -5 3 -9
-1 -9 -9 0 -8 4 -12 8 -9 4 2 10 0 14 -6 3 -5 -1 -10 -9 -10 -9 0 -16 -5 -16
-11 0 -5 5 -7 10 -4 6 3 10 -3 10 -15 0 -12 -4 -19 -8 -16 -5 3 -9 -1 -9 -9 0
-8 4 -12 8 -9 4 2 10 0 14 -6 3 -5 -1 -10 -9 -10 -9 0 -16 -5 -16 -11 0 -5 5
-7 10 -4 6 3 10 2 10 -4 0 -5 -4 -13 -10 -16 -5 -3 -8 -16 -6 -28 3 -12 5 -26
5 -30 1 -5 7 -5 14 -1 6 4 4 -2 -6 -13 -12 -14 -15 -23 -8 -28 7 -4 8 -13 3
-23 -11 -22 -10 -41 3 -50 6 -4 11 -16 12 -27 1 -18 1 -19 -11 -3 -11 14 -12
9 -10 -35 2 -68 3 -69 13 -63 5 4 7 -3 4 -14 -3 -11 -9 -18 -12 -15 -4 2 -8
-2 -8 -10 0 -8 4 -12 8 -9 4 2 10 0 14 -6 3 -5 -1 -10 -9 -10 -9 0 -16 -5 -16
-11 0 -5 5 -7 10 -4 6 3 10 -3 10 -15 0 -12 -4 -19 -8 -16 -5 3 -9 -1 -9 -9 0
-8 4 -12 8 -9 4 2 10 0 14 -6 3 -5 -1 -10 -9 -10 -9 0 -16 -5 -16 -11 0 -5 5
-7 10 -4 6 3 10 2 10 -4 0 -5 -5 -13 -10 -16 -8 -5 -8 -11 -1 -19 6 -7 8 -15
6 -18 -12 -12 -13 -48 -2 -55 7 -5 13 -17 14 -28 1 -19 1 -19 -11 -2 -12 15
-13 13 -12 -18 1 -19 5 -38 9 -41 12 -12 8 -26 -5 -18 -7 4 -8 3 -4 -5 4 -6
11 -9 16 -6 5 3 11 1 15 -5 3 -5 1 -10 -6 -10 -7 0 -9 -3 -6 -6 4 -4 14 -1 24
7 9 8 14 9 10 3 -5 -8 6 -12 33 -11 23 1 35 4 28 9 -8 4 -5 7 9 5 12 0 20 -4
18 -7 -3 -5 261 -6 286 -1 4 0 5 15 4 31 -1 17 1 33 6 35 4 3 6 -3 4 -15 -2
-11 -1 -22 3 -24 4 -2 7 76 7 174 0 98 -3 174 -7 167 -4 -6 -4 -15 -2 -19 3
-4 1 -8 -3 -8 -10 0 -12 135 -2 144 3 3 4 -15 4 -40 -1 -25 1 -47 4 -49 3 -1
6 30 6 71 1 40 -2 68 -6 62 -4 -7 -5 -16 -3 -20 3 -4 1 -8 -3 -8 -10 0 -12
135 -2 144 3 3 4 -15 4 -40 -1 -25 1 -47 4 -49 3 -1 6 30 6 71 1 40 -2 68 -6
62 -4 -7 -5 -16 -3 -20 3 -4 1 -8 -3 -8 -10 0 -12 135 -2 144 3 3 4 -15 4 -40
-1 -25 1 -47 4 -49 3 -1 6 30 6 71 1 40 -2 68 -6 62 -4 -7 -5 -16 -3 -20 3 -4
1 -8 -3 -8 -10 0 -12 135 -2 144 3 3 4 -15 4 -40 -1 -25 1 -47 4 -49 3 -1 6
30 6 71 1 40 -2 68 -6 62 -4 -7 -5 -16 -3 -20 3 -4 1 -8 -3 -8 -10 0 -12 135
-2 144 3 3 4 -15 4 -40 -1 -25 1 -47 4 -49 3 -1 6 30 6 71 1 40 -2 68 -6 62
-4 -7 -5 -16 -3 -20 3 -4 1 -8 -3 -8 -10 0 -12 135 -2 144 3 3 4 -15 4 -40 -1
-25 1 -47 4 -49 3 -1 6 30 6 71 1 40 -2 68 -6 62 -4 -7 -5 -16 -3 -20 3 -4 1
-8 -3 -8 -10 0 -12 135 -2 144 3 3 4 -15 4 -40 -1 -25 1 -47 4 -49 3 -1 6 30
6 71 1 40 -2 68 -6 62 -4 -7 -5 -16 -3 -20 3 -4 1 -8 -4 -8 -5 0 -8 21 -8 48
l1 47 85 -2 c47 -1 90 3 97 9 9 7 13 7 13 -1 0 -6 7 -11 15 -11 8 0 15 6 15
13 0 9 2 9 8 0 7 -11 155 -13 166 -2 4 3 -7 5 -24 4 -17 -1 -27 1 -24 4 10 10
79 7 86 -4 5 -6 8 -6 8 2 0 8 30 12 101 12 61 0 107 5 115 12 8 6 14 7 14 2 0
-5 7 -10 15 -10 10 0 12 4 5 12 -6 8 3 11 33 11 25 0 41 4 40 11 -1 5 6 10 15
10 80 0 103 4 96 16 -5 8 -2 7 9 -2 10 -8 20 -11 24 -7 3 3 1 6 -6 6 -7 0 -9
5 -6 10 3 6 19 10 36 10 16 0 29 5 29 11 0 8 5 7 16 -1 12 -11 15 -11 12 1 -2
9 5 14 20 13 12 -1 22 3 22 7 0 5 -6 9 -12 10 -7 0 -2 5 11 10 14 5 31 7 38 5
7 -3 12 0 10 7 -1 6 8 13 21 15 12 2 20 8 17 13 -6 8 8 13 28 10 4 0 7 6 7 14
0 9 8 19 17 22 10 4 28 17 41 30 13 13 28 23 35 23 8 0 8 3 -1 9 -11 7 -10 9
3 15 9 3 13 11 9 18 -5 7 -1 9 14 6 17 -5 20 -2 16 20 -3 15 -2 23 2 19 11
-11 34 13 27 29 -3 8 1 14 11 14 9 0 16 6 16 14 0 8 7 17 16 20 9 3 14 13 11
20 -3 8 3 24 13 36 11 13 17 27 14 31 -10 16 8 33 18 18 8 -11 9 -10 5 2 -3 9
2 27 10 40 9 12 12 20 6 16 -5 -3 -10 0 -10 7 0 9 7 12 15 8 11 -4 14 -1 10 9
-3 8 -2 23 2 34 4 11 3 27 -4 35 -7 11 -5 10 9 -2 20 -16 20 -15 21 35 0 29 6
53 12 55 7 2 12 26 12 58 0 42 3 53 13 48 9 -6 9 -5 0 7 -13 16 -14 141 -1
133 4 -2 9 0 13 6 3 5 0 10 -7 10 -8 0 -9 3 -3 8 16 12 15 45 -3 60 -9 7 -12
11 -6 8 15 -7 26 32 12 41 -6 3 -8 1 -4 -5 3 -6 3 -13 -1 -15 -5 -3 -9 17 -11
45 -2 38 0 48 10 42 10 -5 11 -4 1 7 -7 7 -13 37 -13 67 0 40 -3 51 -12 46 -8
-5 -7 0 2 11 12 15 12 17 1 10 -11 -6 -13 -4 -8 8 3 10 3 17 -1 17 -5 0 -8 10
-9 23 0 12 -1 33 -2 47 -2 23 -3 24 -11 5 -8 -18 -9 -17 -9 8 -1 15 -1 30 0
33 0 4 -5 10 -12 15 -12 7 -17 21 -21 60 -1 10 -8 15 -15 12 -8 -3 -13 -2 -12
3 4 23 -2 45 -11 39 -10 -6 -14 7 -11 34 2 7 -2 10 -7 7 -11 -7 -34 49 -25 58
4 3 1 6 -4 6 -6 0 -14 -6 -17 -12 -4 -9 -5 -8 -5 2 2 31 -1 53 -7 47 -9 -8
-46 32 -39 43 4 6 -1 10 -10 10 -8 0 -18 7 -21 15 -4 8 -13 15 -22 15 -8 0
-12 3 -9 7 9 9 -23 43 -40 43 -7 0 -16 6 -19 13 -5 13 -15 16 -59 18 -11 1
-14 3 -7 6 6 3 12 10 12 15 0 6 -3 8 -7 5 -3 -4 -12 1 -20 11 -8 9 -12 11 -8
5 3 -7 1 -13 -4 -13 -6 0 -11 5 -11 10 0 6 -11 10 -25 10 -16 0 -25 6 -25 16
0 10 -6 14 -14 11 -9 -4 -17 1 -19 11 -4 14 -5 13 -6 -3 -1 -19 -3 -18 -21 5
-16 20 -20 22 -20 8 0 -10 -4 -18 -10 -18 -5 0 -7 6 -4 14 4 11 -3 14 -30 12
-22 -1 -36 3 -36 11 0 6 -8 12 -17 12 -10 0 -33 1 -50 2 -18 0 -35 4 -38 10
-3 5 0 6 8 3 8 -3 17 -2 20 3 3 4 -6 9 -19 9 -15 1 -24 -4 -24 -12 0 -8 -4
-14 -10 -14 -5 0 -7 7 -4 15 4 8 2 15 -4 15 -6 0 -13 -6 -15 -12 -4 -10 -6
-10 -6 0 -1 8 -25 12 -83 12 -56 0 -78 3 -68 10 12 7 10 9 -7 7 -12 0 -19 -5
-17 -9 9 -14 -9 -9 -27 8 -13 12 -19 12 -25 3 -4 -7 -3 -10 4 -5 6 3 13 2 17
-4 3 -5 -3 -10 -14 -10 -12 0 -21 5 -21 11 0 8 -6 7 -17 -2 -14 -12 -16 -12
-11 1 4 11 -1 15 -18 15 -21 0 -22 -2 -9 -11 14 -10 12 -12 -9 -10 -13 0 -22
4 -19 9 9 15 -75 11 -95 -6 -7 -6 -12 -6 -11 -1 3 19 -1 29 -9 19 -4 -7 -32
-9 -72 -5 -49 4 -68 2 -76 -9 -9 -11 -12 -12 -19 -1 -6 9 -4 11 5 5 8 -5 11
-4 7 2 -4 6 -18 8 -32 6 -13 -3 -23 -9 -20 -12 2 -4 -2 -8 -10 -8 -8 0 -14 3
-13 6 2 18 -3 25 -10 16 -4 -6 -77 -8 -200 -5 -165 4 -195 3 -203 -10z m721 0
c0 -5 -5 -10 -11 -10 -5 0 -7 5 -4 10 3 6 8 10 11 10 2 0 4 -4 4 -10z m-250
-421 c0 13 22 10 32 -4 5 -6 12 -5 19 2 9 9 16 10 26 2 7 -7 13 -7 13 -2 0 11
50 11 68 0 6 -5 12 -4 12 0 0 7 49 9 58 3 6 -6 28 -6 37 -1 19 10 75 7 75 -3
0 -7 3 -8 8 -1 12 17 72 13 72 -4 1 -13 3 -12 11 2 10 17 12 17 29 2 14 -12
20 -13 26 -4 4 8 3 10 -4 5 -7 -4 -12 -5 -12 -2 0 14 19 14 31 -1 10 -12 10
-14 2 -9 -7 4 -13 5 -13 2 0 -17 22 -13 29 6 9 21 10 21 10 3 1 -18 7 -20 51
-19 32 1 50 -2 50 -9 0 -8 4 -7 9 2 7 11 10 11 18 -2 4 -9 23 -17 40 -19 24
-2 29 -5 22 -14 -8 -9 -5 -11 10 -7 13 3 21 1 21 -6 0 -7 5 -9 10 -6 6 3 10
-1 10 -9 0 -8 6 -13 13 -11 15 6 28 -3 44 -30 6 -11 16 -19 22 -17 7 1 15 -6
18 -15 4 -10 14 -23 22 -30 9 -6 16 -20 16 -30 0 -10 6 -17 13 -16 7 2 12 -7
12 -22 0 -14 6 -25 13 -25 8 0 13 -11 13 -27 -1 -17 4 -27 12 -26 8 2 12 -10
12 -37 0 -27 5 -43 15 -46 10 -4 15 -21 15 -53 0 -26 6 -53 13 -60 8 -9 8 -12
0 -7 -14 8 -13 -130 1 -153 6 -10 5 -12 -2 -7 -9 5 -12 -11 -12 -57 0 -45 -5
-68 -15 -77 -9 -8 -15 -30 -15 -56 0 -31 -4 -44 -14 -44 -9 0 -13 -9 -11 -25
1 -16 -3 -25 -11 -25 -8 0 -14 -9 -14 -19 0 -11 -5 -23 -12 -27 -7 -4 -8 -3
-4 4 4 7 2 12 -3 12 -6 0 -12 -7 -12 -15 -3 -35 -6 -40 -18 -37 -8 2 -11 -3
-8 -13 5 -10 0 -15 -13 -15 -11 0 -20 -7 -20 -16 0 -8 -4 -12 -10 -9 -5 3 -10
-1 -10 -9 0 -8 -5 -18 -12 -22 -7 -5 -8 -2 -3 7 5 8 -3 4 -17 -8 -13 -13 -32
-23 -42 -23 -11 0 -14 -4 -10 -12 5 -8 2 -9 -9 -5 -12 4 -17 1 -17 -11 0 -13
-2 -14 -9 -4 -7 11 -9 11 -14 -2 -4 -9 -12 -16 -19 -16 -9 0 -8 3 2 10 10 7
11 10 2 10 -7 0 -15 -6 -18 -14 -3 -8 -14 -13 -25 -11 -10 2 -22 -3 -27 -10
-5 -11 -32 -15 -100 -17 -51 -1 -92 -5 -92 -9 0 -4 13 -5 30 -4 16 1 28 -1 25
-4 -2 -4 -117 -9 -254 -10 l-251 -2 -1 23 c-1 13 -1 60 -1 106 0 56 -3 80 -10
76 -7 -5 -8 -2 -2 7 14 22 15 161 1 152 -9 -5 -9 -3 -1 8 13 16 13 57 0 78 -6
9 -5 12 1 8 8 -5 11 31 10 113 0 75 -4 117 -10 113 -6 -4 -7 -1 -1 8 13 21 15
161 2 153 -7 -5 -8 -2 -2 7 14 22 15 161 1 152 -9 -5 -9 -3 -1 8 7 8 11 61 10
136 -1 76 3 123 9 124 6 0 4 3 -4 6 -11 4 -11 7 0 14 8 4 19 3 26 -3 9 -7 13
-7 13 1z m-470 -253 c0 -3 -4 -8 -10 -11 -5 -3 -10 -1 -10 4 0 6 5 11 10 11 6
0 10 -2 10 -4z m1505 -335 c3 -5 2 -12 -3 -15 -5 -3 -9 1 -9 9 0 17 3 19 12 6z
m-1505 -65 c0 -3 -4 -8 -10 -11 -5 -3 -10 -1 -10 4 0 6 5 11 10 11 6 0 10 -2
10 -4z m1510 -20 c0 -3 -4 -8 -10 -11 -5 -3 -10 -1 -10 4 0 6 5 11 10 11 6 0
10 -2 10 -4z m-1510 -220 c0 -3 -4 -8 -10 -11 -5 -3 -10 -1 -10 4 0 6 5 11 10
11 6 0 10 -2 10 -4z m0 -400 c0 -3 -4 -8 -10 -11 -5 -3 -10 -1 -10 4 0 6 5 11
10 11 6 0 10 -2 10 -4z m0 -240 c0 -3 -4 -8 -10 -11 -5 -3 -10 -1 -10 4 0 6 5
11 10 11 6 0 10 -2 10 -4z m455 -166 c-3 -5 -12 -10 -18 -10 -7 0 -6 4 3 10
19 12 23 12 15 0z m119 -2 c-3 -4 -14 -6 -24 -5 -31 5 -32 13 -1 12 16 0 27
-3 25 -7z m121 2 c-3 -5 -12 -10 -18 -10 -7 0 -6 4 3 10 19 12 23 12 15 0z
m-695 -234 c0 -3 -4 -8 -10 -11 -5 -3 -10 -1 -10 4 0 6 5 11 10 11 6 0 10 -2
10 -4z m0 -240 c0 -3 -4 -8 -10 -11 -5 -3 -10 -1 -10 4 0 6 5 11 10 11 6 0 10
-2 10 -4z m0 -400 c0 -3 -4 -8 -10 -11 -5 -3 -10 -1 -10 4 0 6 5 11 10 11 6 0
10 -2 10 -4z m0 -240 c0 -3 -4 -8 -10 -11 -5 -3 -10 -1 -10 4 0 6 5 11 10 11
6 0 10 -2 10 -4z m416 -181 c0 -30 -2 -55 -5 -55 -5 0 -7 98 -2 108 4 8 6 -4
7 -53z m0 -90 c0 -14 -4 -25 -8 -25 -6 0 -5 25 1 48 3 10 7 -2 7 -23z m0 -80
c0 -14 -4 -25 -8 -25 -6 0 -5 25 1 48 3 10 7 -2 7 -23z m-256 -91 c0 -8 -19
-13 -24 -6 -3 5 1 9 9 9 8 0 15 -2 15 -3z m60 -9 c0 -2 -9 -3 -19 -2 -11 0
-18 5 -15 9 4 6 34 0 34 -7z"/>
        <path d="M6530 4421 c0 -6 4 -13 10 -16 6 -3 7 1 4 9 -7 18 -14 21 -14 7z"/>
        <path d="M6530 4165 c0 -8 4 -15 10 -15 5 0 7 7 4 15 -4 8 -8 15 -10 15 -2 0
-4 -7 -4 -15z"/>
        <path d="M5470 3209 c0 -5 5 -7 10 -4 6 3 10 8 10 11 0 2 -4 4 -10 4 -5 0 -10
-5 -10 -11z"/>
        <path d="M5026 3173 c-6 -14 -5 -15 5 -6 7 7 10 15 7 18 -3 3 -9 -2 -12 -12z"/>
</g>
</svg>
